<svg xmlns="http://www.w3.org/2000/svg" viewBox="0 0 200 200">
  <style>
    .favicon-p {
      fill: #ff922b;
    }

    .favicon-ring {
      fill: #ffd8a8;
    }

    @media (prefers-color-scheme: dark) {
      .favicon-p {
        fill: #ff922b;
      }

      .favicon-ring {
        fill: #e8590c;
      }
    }
  </style>
  <path id="cercle" class="favicon-ring"
    d="M100 0a83.85 83.85 0 1 0 48.36 152.33 17.71 17.71 0 0 1-14.76-14.47 61.7 61.7 0 0 1-14 6.52 63.64 63.64 0 1 1 41-41 62 62 0 0 1-6.53 14 17.73 17.73 0 0 1 14.47 14.77A83.84 83.84 0 0 0 100 0Z" />
  <path id="petitp" class="favicon-p"
    d="M151 102a32.83 32.83 0 0 0-32.82 32.32V200h15.15v-37.5A32.83 32.83 0 1 0 151 102Zm0 50.51a17.68 17.68 0 1 1 17.68-17.68 17.7 17.7 0 0 1-17.68 17.7Z" />
</svg>